<svg width="102" height="100" viewBox="0 0 102 100" fill="none" xmlns="http://www.w3.org/2000/svg">
<path d="M11 0L28 9.5V28.5L11 38L-6 28.5V9.5L11 0Z" fill="#E7EF8C"/>
<path d="M48 0L65 9.5V28.5L48 38L31 28.5V9.5L48 0Z" fill="#E7EF8C"/>
<path d="M76 13L84 17.5V26.5L76 31L68 26.5V17.5L76 13Z" fill="#E7EF8C"/>
<path d="M30 31L47 40.5V59.5L30 69L13 59.5V40.5L30 31Z" fill="#E7EF8C"/>
<path d="M83 41.0869V58.9121L67 67.8535L51 58.9121V41.0869L67 32.1455L83 41.0869Z" stroke="#E7EF8C" stroke-width="2"/>
<path d="M101 72.0869V89.9121L85 98.8535L69 89.9121V72.0869L85 63.1455L101 72.0869Z" stroke="#E7EF8C" stroke-width="2"/>
<path d="M48 62L65 71.5V90.5L48 100L31 90.5V71.5L48 62Z" fill="#E7EF8C"/>
</svg>
